# xmcd
#
# Track frame offsets: 
#        182
#        16130
#        27192
#        47132
#        64937
#        87782
#        101622
#        120472
#        144530
#
# Disc length: 2167 seconds
#
# Revision: 6
# Processed by: cddbd v1.5.2PL0 Copyright (c) Steve Scherf et al.
# Submitted via: ExactAudioCopyFreeDBPlugin 1.0
#
DISCID=6e087509
DTITLE=Muddy Waters - The London Muddy Waters Sessions
DYEAR=1989
DGENRE=Blues
TTITLE0=Blind Man Blues
TTITLE1=Key To The Highway
TTITLE2=Young Fashioned Ways
TTITLE3=I'm Gonna Move To The Outskirts Of Town
TTITLE4=Who's Gonna Be Your Sweet Man When I'm Gone
TTITLE5=Walkin' Blues
TTITLE6=I'm Ready
TTITLE7=Sad Sad Day
TTITLE8=I Don't Know Why
EXTD=LABEL =MCA Records, Inc.\nID =CHD-9298\nUPC =none\nCOPYRIGHT =
EXTD=1972, 1989 YEAR: 1989
EXTT0=
EXTT1=
EXTT2=
EXTT3=
EXTT4=
EXTT5=
EXTT6=
EXTT7=
EXTT8=
PLAYORDER=
